<svg xmlns="http://www.w3.org/2000/svg" viewBox="0 0 750 555">
  <defs>
    <linearGradient id="circleFade" x1="0" y1="0" x2="1" y2="1">
      <stop offset="0" stop-color="#d8edff" stop-opacity=".95" />
      <stop offset="1" stop-color="#f9fcff" stop-opacity=".2" />
    </linearGradient>
    <linearGradient id="waveBlue" x1="0" y1="0" x2="1" y2=".5">
      <stop offset="0" stop-color="#b8e5ff" stop-opacity=".85" />
      <stop offset=".58" stop-color="#dff4ff" stop-opacity=".55" />
      <stop offset="1" stop-color="#bde8ff" stop-opacity=".6" />
    </linearGradient>
    <linearGradient id="waveMint" x1=".25" y1="1" x2="1" y2="0">
      <stop offset="0" stop-color="#eaffff" stop-opacity=".15" />
      <stop offset="1" stop-color="#a6eedc" stop-opacity=".7" />
    </linearGradient>
  </defs>
  <circle cx="753" cy="276" r="181" fill="url(#circleFade)" />
  <path d="M0 273C94 288 139 374 211 440c72 67 143 85 236 55 84-27 188-121 303-171v142H0Z" fill="url(#waveMint)" opacity=".7" />
  <path d="M0 395c97-2 166 40 253 65 120 35 195 23 284-3 81-23 148-2 213 61v37H0Z" fill="url(#waveBlue)" />
  <path d="M0 272c77 15 124 70 173 126 65 75 131 115 217 110 87-5 130-52 212-72 53-13 100-9 148 17v65c-66-63-132-84-213-61-89 26-164 38-284 3C166 435 97 393 0 395Z" fill="#eaf8ff" opacity=".77" />
</svg>
